<?xml version="1.0" encoding="UTF-8" standalone="no"?>
<!-- Generator: Adobe Illustrator 19.0.0, SVG Export Plug-In . SVG Version: 6.00 Build 0)  -->

<svg
   xmlns:dc="http://purl.org/dc/elements/1.1/"
   xmlns:cc="http://creativecommons.org/ns#"
   xmlns:rdf="http://www.w3.org/1999/02/22-rdf-syntax-ns#"
   xmlns:svg="http://www.w3.org/2000/svg"
   xmlns="http://www.w3.org/2000/svg"
   xmlns:sodipodi="http://sodipodi.sourceforge.net/DTD/sodipodi-0.dtd"
   xmlns:inkscape="http://www.inkscape.org/namespaces/inkscape"
   version="1.1"
   id="Layer_1"
   x="0px"
   y="0px"
   viewBox="0 0 512 512"
   style="enable-background:new 0 0 512 512;"
   xml:space="preserve"
   sodipodi:docname="card-4.svg"
   inkscape:version="0.92.1 r15371"><metadata
     id="metadata75"><rdf:RDF><cc:Work
         rdf:about=""><dc:format>image/svg+xml</dc:format><dc:type
           rdf:resource="http://purl.org/dc/dcmitype/StillImage" /><dc:title></dc:title></cc:Work></rdf:RDF></metadata><defs
     id="defs73" /><sodipodi:namedview
     pagecolor="#ffffff"
     bordercolor="#666666"
     borderopacity="1"
     objecttolerance="10"
     gridtolerance="10"
     guidetolerance="10"
     inkscape:pageopacity="0"
     inkscape:pageshadow="2"
     inkscape:window-width="1440"
     inkscape:window-height="845"
     id="namedview71"
     showgrid="false"
     inkscape:zoom="0.65186406"
     inkscape:cx="569.29824"
     inkscape:cy="297.79014"
     inkscape:window-x="0"
     inkscape:window-y="27"
     inkscape:window-maximized="1"
     inkscape:current-layer="Layer_1" /><path
     id="path20"
     d="m 295.726,45.383 c -4.968,0 -8.996,-4.028 -8.996,-8.996 V 29.19 c 0,-4.968 4.028,-8.996 8.996,-8.996 4.968,0 8.996,4.028 8.996,8.996 v 7.197 c 0,4.968 -4.028,8.996 -8.996,8.996 z"
     style="fill:#000000;fill-opacity:1"
     inkscape:connector-curvature="0" /><circle
     id="circle22"
     r="8.9960003"
     cy="120.943"
     cx="313.72299"
     style="fill:#000000;fill-opacity:1" /><path
     id="path26"
     d="m 342.716,82.904 h -0.784 V 60.726 c 0,-4.968 -4.028,-8.996 -8.996,-8.996 h -1.099 V 8.996 C 331.837,4.028 327.809,0 322.841,0 c -4.968,0 -8.996,4.028 -8.996,8.996 V 51.73 H 198.792 V 8.996 C 198.792,4.028 194.764,0 189.796,0 184.828,0 180.8,4.028 180.8,8.996 V 51.73 h -1.098 c -4.968,0 -8.996,4.028 -8.996,8.996 v 22.178 h -1.424 c -4.968,0 -8.996,4.028 -8.996,8.996 v 56.26 c 0,4.968 4.028,8.996 8.996,8.996 h 11.511 v 345.848 c 0,4.968 4.028,8.996 8.996,8.996 4.968,0 8.996,-4.028 8.996,-8.996 V 367.991 l 18.36,-9.721 32.457,21.393 c 1.51,0.996 3.233,1.485 4.949,1.485 2.142,0 4.273,-0.763 5.963,-2.257 l 16.356,-14.469 13.438,9.932 c 3.49,2.58 8.324,2.301 11.493,-0.664 l 12.04,-11.263 v 140.577 c 0,4.968 4.028,8.996 8.996,8.996 4.968,0 8.996,-4.028 8.996,-8.996 V 157.156 h 10.884 c 4.968,0 8.996,-4.028 8.996,-8.996 V 91.9 c 0,-4.968 -4.027,-8.996 -8.997,-8.996 z M 188.701,69.722 H 323.942 V 82.904 H 188.701 Z m 106.279,285.712 -13.27,-9.808 c -3.414,-2.524 -8.128,-2.316 -11.307,0.497 l -16.649,14.728 -31.155,-20.534 c -2.743,-1.808 -6.254,-1.976 -9.16,-0.439 l -14.652,7.757 v -49.909 c 6.689,-4.674 23.837,-14.343 46.278,-9.856 10.822,2.164 19.325,5.417 27.547,8.562 10.345,3.957 20.319,7.774 32.091,7.773 2.921,0 5.963,-0.252 9.139,-0.778 v 34.365 z m 18.862,-70.352 c -12.636,3.005 -21.816,-0.491 -34.802,-5.458 -8.502,-3.252 -18.138,-6.939 -30.446,-9.4 -20.93,-4.186 -38.321,1.086 -49.806,6.737 V 157.156 H 313.841 V 285.082 Z M 333.72,139.164 h -10.837 c -0.016,0 -0.031,-0.002 -0.047,-0.002 -0.016,0 -0.031,0.002 -0.047,0.002 H 189.838 c -0.016,0 -0.031,-0.002 -0.047,-0.002 -0.016,0 -0.031,0.002 -0.047,0.002 h -11.465 v -38.268 h 155.44 v 38.268 z"
     style="fill:#000000;fill-opacity:1"
     inkscape:connector-curvature="0" /><circle
     id="circle28"
     r="8.9960003"
     cy="407.38901"
     cx="289.78101"
     style="fill:#000000;fill-opacity:1" /><circle
     id="circle30"
     r="8.9960003"
     cy="400.672"
     cx="227.709"
     style="fill:#000000;fill-opacity:1" /><circle
     id="circle32"
     r="8.9960003"
     cy="449.323"
     cx="257.91101"
     style="fill:#000000;fill-opacity:1" /><circle
     id="circle34"
     r="8.9960003"
     cy="468.62201"
     cx="220.164"
     style="fill:#000000;fill-opacity:1" /><circle
     id="circle36"
     r="8.9960003"
     cy="482.04401"
     cx="285.595"
     style="fill:#000000;fill-opacity:1" /><g
     id="g40" /><g
     id="g42" /><g
     id="g44" /><g
     id="g46" /><g
     id="g48" /><g
     id="g50" /><g
     id="g52" /><g
     id="g54" /><g
     id="g56" /><g
     id="g58" /><g
     id="g60" /><g
     id="g62" /><g
     id="g64" /><g
     id="g66" /><g
     id="g68" /></svg>